REM MD5 71ea0dbc4b571a40adbf9f1b20d3b78d
FILE "Lunar - Silver Star Story Complete (USA) (Demo).bin" BINARY
  TRACK 01 MODE2/2352
    INDEX 01 00:00:00
  TRACK 02 AUDIO
    INDEX 00 24:52:67
    INDEX 01 24:54:67
  TRACK 03 AUDIO
    INDEX 00 27:23:39
    INDEX 01 27:25:39
REM LEADOUT 28:09:08
